<?xml version="1.0" encoding="UTF-8" standalone="no"?>
<!-- Created with Inkscape (http://www.inkscape.org/) -->

<svg
   width="17.746717mm"
   height="5.5562429mm"
   viewBox="0 0 17.746717 5.5562429"
   version="1.1"
   id="svg244"
   inkscape:version="1.2.2 (b0a8486541, 2022-12-01)"
   sodipodi:docname="logo.svg"
   xmlns:inkscape="http://www.inkscape.org/namespaces/inkscape"
   xmlns:sodipodi="http://sodipodi.sourceforge.net/DTD/sodipodi-0.dtd"
   xmlns="http://www.w3.org/2000/svg"
   xmlns:svg="http://www.w3.org/2000/svg">
  <sodipodi:namedview
     id="namedview246"
     pagecolor="#ffffff"
     bordercolor="#999999"
     borderopacity="1"
     inkscape:showpageshadow="0"
     inkscape:pageopacity="0"
     inkscape:pagecheckerboard="0"
     inkscape:deskcolor="#d1d1d1"
     inkscape:document-units="mm"
     showgrid="false"
     inkscape:zoom="4.9245769"
     inkscape:cx="26.195144"
     inkscape:cy="12.488382"
     inkscape:window-width="1896"
     inkscape:window-height="970"
     inkscape:window-x="9"
     inkscape:window-y="52"
     inkscape:window-maximized="1"
     inkscape:current-layer="layer1" />
  <defs
     id="defs241" />
  <g
     inkscape:label="Layer 1"
     inkscape:groupmode="layer"
     id="layer1"
     transform="translate(-67.135742,-140.72651)">
    <g
       id="g1180"
       transform="translate(0.87621375,8.8849485)"
       style="stroke:#1a1a1a">
      <path
         d="m 79.64062,137.26551 h 3.704167 a 0.52916666,0.52916666 0 0 0 0.529167,-0.52916 v -3.43959 l -1.322917,-1.32291 h -2.38125 a 0.52916666,0.52916666 0 0 0 -0.529167,0.52916 v 1.05834"
         id="path91"
         style="fill:none;stroke:#1a1a1a;stroke-width:0.264583;stroke-linejoin:round" />
      <path
         d="m 82.286454,131.97385 v 1.05833 a 0.52916666,0.52916666 0 0 0 0.529166,0.52917 h 1.058334"
         id="path93"
         style="fill:none;stroke:#1a1a1a;stroke-width:0.264583;stroke-linejoin:round" />
      <path
         d="m 79.64062,134.61968 a 0.26458333,0.26458333 0 0 0 -0.264583,0.26458 v 0.26459 a 0.26458333,0.26458333 0 0 1 -0.264583,0.26458 0.26458333,0.26458333 0 0 1 0.264583,0.26458 v 0.26459 a 0.26458333,0.26458333 0 0 0 0.264583,0.26458"
         id="path95"
         style="fill:none;stroke:#1a1a1a;stroke-width:0.264583;stroke-linejoin:round" />
      <path
         d="m 80.698954,136.20718 a 0.26458333,0.26458333 0 0 0 0.264583,-0.26458 v -0.26459 a 0.26458333,0.26458333 0 0 1 0.264583,-0.26458 0.26458333,0.26458333 0 0 1 -0.264583,-0.26458 v -0.26459 a 0.26458333,0.26458333 0 0 0 -0.264583,-0.26458"
         id="path97"
         style="fill:none;stroke:#1a1a1a;stroke-width:0.264583;stroke-linejoin:round" />
    </g>
    <g
       id="g1191"
       transform="translate(-4.3423224,-0.3221615)"
       style="stroke:#1a1a1a">
      <path
         d="M 82.110891,143.82679 H 78.406724"
         id="path157"
         style="fill:none;stroke:#1a1a1a;stroke-width:0.264583;stroke-linecap:round;stroke-opacity:1" />
      <path
         d="m 80.523391,145.41429 1.5875,-1.5875 -1.5875,-1.5875"
         id="path159"
         style="fill:none;stroke:#1a1a1a;stroke-width:0.264583;stroke-linecap:round;stroke-opacity:1" />
    </g>
    <g
       id="g1168"
       transform="translate(-8.3956527,-7.0879472)"
       style="stroke:#1a1a1a">
      <path
         d="m 77.251186,148.67435 v 1.05833"
         id="path167"
         style="fill:none;stroke:#1a1a1a;stroke-width:0.264583;stroke-linejoin:round" />
      <rect
         width="1.0583333"
         height="1.5875"
         x="76.722023"
         y="149.73268"
         rx="0.26458332"
         id="rect169"
         style="fill:none;stroke:#1a1a1a;stroke-width:0.264583;stroke-linejoin:round" />
      <path
         d="m 77.251186,151.32018 v 0.52917"
         id="path171"
         style="fill:none;stroke:#1a1a1a;stroke-width:0.264583;stroke-linejoin:round" />
      <path
         d="m 79.367853,148.14518 v 0.52917"
         id="path173"
         style="fill:none;stroke:#1a1a1a;stroke-width:0.264583;stroke-linejoin:round" />
      <rect
         width="1.0583333"
         height="2.1166666"
         x="78.838684"
         y="148.67435"
         rx="0.26458332"
         id="rect175"
         style="fill:none;stroke:#1a1a1a;stroke-width:0.264583;stroke-linejoin:round" />
      <path
         d="m 79.367853,150.79101 v 0.79375"
         id="path177"
         style="fill:none;stroke:#1a1a1a;stroke-width:0.264583;stroke-linejoin:round" />
      <path
         d="m 75.663686,148.14518 v 4.7625 h 4.7625"
         id="path179"
         style="fill:none;stroke:#1a1a1a;stroke-width:0.264583;stroke-linejoin:round" />
    </g>
  </g>
</svg>
